<?xml version="1.0" encoding="utf-8"?>
<!-- Generator: Adobe Illustrator 19.0.1, SVG Export Plug-In . SVG Version: 6.00 Build 0)  -->
<svg version="1.1" id="Layer_1" xmlns="http://www.w3.org/2000/svg" xmlns:xlink="http://www.w3.org/1999/xlink" x="0px" y="0px"
	 viewBox="-379.9 295.7 17.7 18" style="enable-background:new -379.9 295.7 17.7 18;" xml:space="preserve">
<style type="text/css">
	.st0{fill:#FFFFFF;}
</style>
<title>Media icons</title>
<path class="st0" d="M-364.4,305.1c0-0.3,0.1-0.6,0.1-0.9c0-0.3,0-0.6-0.1-0.9l1.9-1.5c0.2-0.1,0.2-0.4,0.1-0.6l-1.8-3.1
	c-0.1-0.2-0.3-0.3-0.6-0.2l-2.2,0.9c-0.5-0.4-1-0.7-1.5-0.9l-0.3-2.1c0-0.2-0.2-0.1-0.4-0.1h-3.6c-0.2,0-0.4-0.1-0.4,0.1l-0.3,2.3
	c-0.5,0.2-1.1,0.5-1.5,0.8l-2.2-0.9c-0.2-0.1-0.4,0-0.5,0.2l-1.8,3.1c-0.1,0.2-0.1,0.4,0.1,0.6l1.9,1.5c0,0.3-0.1,0.6-0.1,0.9
	c0,0.3,0,0.6,0.1,0.9l-1.9,1.5c-0.2,0.1-0.2,0.4-0.1,0.6l1.8,3.1c0.1,0.2,0.3,0.3,0.5,0.2l2.2-0.9c0.5,0.4,1,0.7,1.5,0.9l0.3,2.6
	c0,0.2,0.2,0.6,0.4,0.6h3.6c0.2,0,0.4-0.4,0.4-0.6l0.3-2.5c0.5-0.2,1.1-0.6,1.5-0.9l2.2,0.9c0.2,0.1,0.4,0,0.6-0.2l1.8-3.1
	c0.1-0.2,0.1-0.4-0.1-0.6L-364.4,305.1z M-371.1,306.5c-1.2,0-2.2-1-2.2-2.2s1-2.2,2.2-2.2s2.2,1,2.2,2.2l0,0
	C-368.9,305.5-369.9,306.4-371.1,306.5z"/>
</svg>
